<mxfile host="Electron" modified="2024-03-18T08:55:20.348Z" agent="Mozilla/5.0 (Windows NT 10.0; Win64; x64) AppleWebKit/537.36 (KHTML, like Gecko) draw.io/23.1.5 Chrome/120.0.6099.109 Electron/28.1.0 Safari/537.36" etag="HuWSRkGVndKoxRfFYCrz" version="23.1.5" type="device">
  <diagram name="Pagina-1" id="6ZSMdHpR4-rC5X0mY254">
    <mxGraphModel dx="2300" dy="1699" grid="1" gridSize="10" guides="1" tooltips="1" connect="1" arrows="1" fold="1" page="0" pageScale="1" pageWidth="827" pageHeight="1169" math="0" shadow="0">
      <root>
        <mxCell id="0" />
        <mxCell id="1" parent="0" />
        <mxCell id="l6iWQp9dj2jAlaysU-fF-5" style="edgeStyle=orthogonalEdgeStyle;rounded=0;orthogonalLoop=1;jettySize=auto;html=1;entryX=0;entryY=0.5;entryDx=0;entryDy=0;" parent="1" source="l6iWQp9dj2jAlaysU-fF-1" target="l6iWQp9dj2jAlaysU-fF-4" edge="1">
          <mxGeometry relative="1" as="geometry" />
        </mxCell>
        <mxCell id="l6iWQp9dj2jAlaysU-fF-6" style="edgeStyle=orthogonalEdgeStyle;rounded=0;orthogonalLoop=1;jettySize=auto;html=1;entryX=0;entryY=0.5;entryDx=0;entryDy=0;" parent="1" source="l6iWQp9dj2jAlaysU-fF-1" target="l6iWQp9dj2jAlaysU-fF-3" edge="1">
          <mxGeometry relative="1" as="geometry" />
        </mxCell>
        <mxCell id="l6iWQp9dj2jAlaysU-fF-7" style="edgeStyle=orthogonalEdgeStyle;rounded=0;orthogonalLoop=1;jettySize=auto;html=1;entryX=0;entryY=0.5;entryDx=0;entryDy=0;" parent="1" source="l6iWQp9dj2jAlaysU-fF-1" target="l6iWQp9dj2jAlaysU-fF-2" edge="1">
          <mxGeometry relative="1" as="geometry" />
        </mxCell>
        <mxCell id="l6iWQp9dj2jAlaysU-fF-98" style="edgeStyle=orthogonalEdgeStyle;rounded=0;orthogonalLoop=1;jettySize=auto;html=1;entryX=0.5;entryY=0;entryDx=0;entryDy=0;endArrow=doubleBlock;endFill=1;" parent="1" source="l6iWQp9dj2jAlaysU-fF-1" target="l6iWQp9dj2jAlaysU-fF-97" edge="1">
          <mxGeometry relative="1" as="geometry" />
        </mxCell>
        <mxCell id="l6iWQp9dj2jAlaysU-fF-112" style="edgeStyle=orthogonalEdgeStyle;rounded=0;orthogonalLoop=1;jettySize=auto;html=1;entryX=0;entryY=0.5;entryDx=0;entryDy=0;endArrow=doubleBlock;endFill=1;" parent="1" source="l6iWQp9dj2jAlaysU-fF-1" target="l6iWQp9dj2jAlaysU-fF-111" edge="1">
          <mxGeometry relative="1" as="geometry" />
        </mxCell>
        <mxCell id="l6iWQp9dj2jAlaysU-fF-1" value="Cinema" style="rounded=0;whiteSpace=wrap;html=1;" parent="1" vertex="1">
          <mxGeometry x="-380" y="-631" width="190" height="110" as="geometry" />
        </mxCell>
        <mxCell id="l6iWQp9dj2jAlaysU-fF-2" value="" style="ellipse;whiteSpace=wrap;html=1;aspect=fixed;" parent="1" vertex="1">
          <mxGeometry x="-260" y="-440" width="20" height="20" as="geometry" />
        </mxCell>
        <mxCell id="l6iWQp9dj2jAlaysU-fF-3" value="" style="ellipse;whiteSpace=wrap;html=1;aspect=fixed;fillColor=#FFFFFF;" parent="1" vertex="1">
          <mxGeometry x="-260" y="-410" width="20" height="20" as="geometry" />
        </mxCell>
        <mxCell id="l6iWQp9dj2jAlaysU-fF-4" value="" style="ellipse;whiteSpace=wrap;html=1;aspect=fixed;" parent="1" vertex="1">
          <mxGeometry x="-260" y="-380" width="20" height="20" as="geometry" />
        </mxCell>
        <mxCell id="l6iWQp9dj2jAlaysU-fF-8" value="name" style="text;html=1;align=center;verticalAlign=middle;resizable=0;points=[];autosize=1;strokeColor=none;fillColor=none;" parent="1" vertex="1">
          <mxGeometry x="-239" y="-445" width="50" height="30" as="geometry" />
        </mxCell>
        <mxCell id="l6iWQp9dj2jAlaysU-fF-9" value="address" style="text;html=1;align=center;verticalAlign=middle;resizable=0;points=[];autosize=1;strokeColor=none;fillColor=none;" parent="1" vertex="1">
          <mxGeometry x="-239" y="-415" width="70" height="30" as="geometry" />
        </mxCell>
        <mxCell id="l6iWQp9dj2jAlaysU-fF-10" value="phone" style="text;html=1;align=center;verticalAlign=middle;resizable=0;points=[];autosize=1;strokeColor=none;fillColor=none;" parent="1" vertex="1">
          <mxGeometry x="-239" y="-385" width="60" height="30" as="geometry" />
        </mxCell>
        <mxCell id="l6iWQp9dj2jAlaysU-fF-19" style="edgeStyle=orthogonalEdgeStyle;rounded=0;orthogonalLoop=1;jettySize=auto;html=1;entryX=0;entryY=0.5;entryDx=0;entryDy=0;endArrow=doubleBlock;endFill=1;" parent="1" source="l6iWQp9dj2jAlaysU-fF-11" target="l6iWQp9dj2jAlaysU-fF-15" edge="1">
          <mxGeometry relative="1" as="geometry" />
        </mxCell>
        <mxCell id="l6iWQp9dj2jAlaysU-fF-20" style="edgeStyle=orthogonalEdgeStyle;rounded=0;orthogonalLoop=1;jettySize=auto;html=1;entryX=0;entryY=0.5;entryDx=0;entryDy=0;" parent="1" source="l6iWQp9dj2jAlaysU-fF-11" target="l6iWQp9dj2jAlaysU-fF-14" edge="1">
          <mxGeometry relative="1" as="geometry" />
        </mxCell>
        <mxCell id="l6iWQp9dj2jAlaysU-fF-21" style="edgeStyle=orthogonalEdgeStyle;rounded=0;orthogonalLoop=1;jettySize=auto;html=1;entryX=0;entryY=0.5;entryDx=0;entryDy=0;" parent="1" source="l6iWQp9dj2jAlaysU-fF-11" target="l6iWQp9dj2jAlaysU-fF-13" edge="1">
          <mxGeometry relative="1" as="geometry" />
        </mxCell>
        <mxCell id="l6iWQp9dj2jAlaysU-fF-99" style="edgeStyle=orthogonalEdgeStyle;rounded=0;orthogonalLoop=1;jettySize=auto;html=1;entryX=0.5;entryY=1;entryDx=0;entryDy=0;endArrow=classic;endFill=1;" parent="1" source="l6iWQp9dj2jAlaysU-fF-11" target="l6iWQp9dj2jAlaysU-fF-97" edge="1">
          <mxGeometry relative="1" as="geometry" />
        </mxCell>
        <mxCell id="l6iWQp9dj2jAlaysU-fF-122" style="edgeStyle=orthogonalEdgeStyle;rounded=0;orthogonalLoop=1;jettySize=auto;html=1;entryX=0.5;entryY=0;entryDx=0;entryDy=0;endArrow=classic;endFill=1;" parent="1" source="l6iWQp9dj2jAlaysU-fF-11" target="l6iWQp9dj2jAlaysU-fF-121" edge="1">
          <mxGeometry relative="1" as="geometry" />
        </mxCell>
        <mxCell id="l6iWQp9dj2jAlaysU-fF-11" value="Theater" style="rounded=0;whiteSpace=wrap;html=1;" parent="1" vertex="1">
          <mxGeometry x="-620" y="-398" width="150" height="80" as="geometry" />
        </mxCell>
        <mxCell id="l6iWQp9dj2jAlaysU-fF-13" value="" style="ellipse;whiteSpace=wrap;html=1;aspect=fixed;" parent="1" vertex="1">
          <mxGeometry x="-500" y="-308" width="20" height="20" as="geometry" />
        </mxCell>
        <mxCell id="l6iWQp9dj2jAlaysU-fF-14" value="" style="ellipse;whiteSpace=wrap;html=1;aspect=fixed;" parent="1" vertex="1">
          <mxGeometry x="-500" y="-278" width="20" height="20" as="geometry" />
        </mxCell>
        <mxCell id="l6iWQp9dj2jAlaysU-fF-15" value="" style="ellipse;whiteSpace=wrap;html=1;aspect=fixed;" parent="1" vertex="1">
          <mxGeometry x="-500" y="-248" width="20" height="20" as="geometry" />
        </mxCell>
        <mxCell id="l6iWQp9dj2jAlaysU-fF-16" value="name" style="text;html=1;align=center;verticalAlign=middle;resizable=0;points=[];autosize=1;strokeColor=none;fillColor=none;" parent="1" vertex="1">
          <mxGeometry x="-480" y="-313" width="50" height="30" as="geometry" />
        </mxCell>
        <mxCell id="l6iWQp9dj2jAlaysU-fF-17" value="capacity" style="text;html=1;align=center;verticalAlign=middle;resizable=0;points=[];autosize=1;strokeColor=none;fillColor=none;" parent="1" vertex="1">
          <mxGeometry x="-483" y="-283" width="70" height="30" as="geometry" />
        </mxCell>
        <mxCell id="l6iWQp9dj2jAlaysU-fF-18" value="screen type" style="text;html=1;align=center;verticalAlign=middle;resizable=0;points=[];autosize=1;strokeColor=none;fillColor=none;" parent="1" vertex="1">
          <mxGeometry x="-484" y="-253" width="90" height="30" as="geometry" />
        </mxCell>
        <mxCell id="l6iWQp9dj2jAlaysU-fF-30" style="edgeStyle=orthogonalEdgeStyle;rounded=0;orthogonalLoop=1;jettySize=auto;html=1;entryX=0;entryY=0.5;entryDx=0;entryDy=0;" parent="1" source="l6iWQp9dj2jAlaysU-fF-22" target="l6iWQp9dj2jAlaysU-fF-26" edge="1">
          <mxGeometry relative="1" as="geometry" />
        </mxCell>
        <mxCell id="l6iWQp9dj2jAlaysU-fF-31" style="edgeStyle=orthogonalEdgeStyle;rounded=0;orthogonalLoop=1;jettySize=auto;html=1;entryX=0;entryY=0.5;entryDx=0;entryDy=0;" parent="1" source="l6iWQp9dj2jAlaysU-fF-22" target="l6iWQp9dj2jAlaysU-fF-25" edge="1">
          <mxGeometry relative="1" as="geometry" />
        </mxCell>
        <mxCell id="l6iWQp9dj2jAlaysU-fF-32" style="edgeStyle=orthogonalEdgeStyle;rounded=0;orthogonalLoop=1;jettySize=auto;html=1;entryX=0;entryY=0.5;entryDx=0;entryDy=0;" parent="1" source="l6iWQp9dj2jAlaysU-fF-22" target="l6iWQp9dj2jAlaysU-fF-24" edge="1">
          <mxGeometry relative="1" as="geometry" />
        </mxCell>
        <mxCell id="l6iWQp9dj2jAlaysU-fF-35" style="edgeStyle=orthogonalEdgeStyle;rounded=0;orthogonalLoop=1;jettySize=auto;html=1;entryX=0;entryY=0.5;entryDx=0;entryDy=0;" parent="1" source="l6iWQp9dj2jAlaysU-fF-22" target="l6iWQp9dj2jAlaysU-fF-33" edge="1">
          <mxGeometry relative="1" as="geometry" />
        </mxCell>
        <mxCell id="l6iWQp9dj2jAlaysU-fF-36" style="edgeStyle=orthogonalEdgeStyle;rounded=0;orthogonalLoop=1;jettySize=auto;html=1;entryX=0;entryY=0.5;entryDx=0;entryDy=0;" parent="1" source="l6iWQp9dj2jAlaysU-fF-22" target="l6iWQp9dj2jAlaysU-fF-34" edge="1">
          <mxGeometry relative="1" as="geometry" />
        </mxCell>
        <mxCell id="vr4257gKs70EG6Qa4sg_-27" style="edgeStyle=orthogonalEdgeStyle;rounded=0;orthogonalLoop=1;jettySize=auto;html=1;entryX=0;entryY=0.5;entryDx=0;entryDy=0;endArrow=doubleBlock;endFill=1;" parent="1" source="l6iWQp9dj2jAlaysU-fF-22" target="vr4257gKs70EG6Qa4sg_-23" edge="1">
          <mxGeometry relative="1" as="geometry" />
        </mxCell>
        <mxCell id="vr4257gKs70EG6Qa4sg_-33" style="edgeStyle=orthogonalEdgeStyle;rounded=0;orthogonalLoop=1;jettySize=auto;html=1;entryX=0.5;entryY=1;entryDx=0;entryDy=0;endArrow=doubleBlock;endFill=1;" parent="1" source="l6iWQp9dj2jAlaysU-fF-22" target="vr4257gKs70EG6Qa4sg_-28" edge="1">
          <mxGeometry relative="1" as="geometry" />
        </mxCell>
        <mxCell id="l6iWQp9dj2jAlaysU-fF-22" value="Movie" style="rounded=0;whiteSpace=wrap;html=1;" parent="1" vertex="1">
          <mxGeometry x="-619.5" y="201" width="150" height="80" as="geometry" />
        </mxCell>
        <mxCell id="l6iWQp9dj2jAlaysU-fF-24" value="" style="ellipse;whiteSpace=wrap;html=1;aspect=fixed;" parent="1" vertex="1">
          <mxGeometry x="-488.5" y="335" width="20" height="20" as="geometry" />
        </mxCell>
        <mxCell id="l6iWQp9dj2jAlaysU-fF-25" value="" style="ellipse;whiteSpace=wrap;html=1;aspect=fixed;" parent="1" vertex="1">
          <mxGeometry x="-488.5" y="365" width="20" height="20" as="geometry" />
        </mxCell>
        <mxCell id="l6iWQp9dj2jAlaysU-fF-26" value="" style="ellipse;whiteSpace=wrap;html=1;aspect=fixed;" parent="1" vertex="1">
          <mxGeometry x="-488.5" y="395" width="20" height="20" as="geometry" />
        </mxCell>
        <mxCell id="l6iWQp9dj2jAlaysU-fF-27" value="title" style="text;html=1;align=center;verticalAlign=middle;resizable=0;points=[];autosize=1;strokeColor=none;fillColor=none;" parent="1" vertex="1">
          <mxGeometry x="-469.5" y="330" width="40" height="30" as="geometry" />
        </mxCell>
        <mxCell id="l6iWQp9dj2jAlaysU-fF-28" value="director" style="text;html=1;align=center;verticalAlign=middle;resizable=0;points=[];autosize=1;strokeColor=none;fillColor=none;" parent="1" vertex="1">
          <mxGeometry x="-468.5" y="360" width="60" height="30" as="geometry" />
        </mxCell>
        <mxCell id="l6iWQp9dj2jAlaysU-fF-29" value="release date" style="text;html=1;align=center;verticalAlign=middle;resizable=0;points=[];autosize=1;strokeColor=none;fillColor=none;" parent="1" vertex="1">
          <mxGeometry x="-470.5" y="390" width="90" height="30" as="geometry" />
        </mxCell>
        <mxCell id="l6iWQp9dj2jAlaysU-fF-33" value="" style="ellipse;whiteSpace=wrap;html=1;aspect=fixed;" parent="1" vertex="1">
          <mxGeometry x="-488.5" y="425" width="20" height="20" as="geometry" />
        </mxCell>
        <mxCell id="l6iWQp9dj2jAlaysU-fF-34" value="" style="ellipse;whiteSpace=wrap;html=1;aspect=fixed;" parent="1" vertex="1">
          <mxGeometry x="-488.5" y="450" width="20" height="20" as="geometry" />
        </mxCell>
        <mxCell id="l6iWQp9dj2jAlaysU-fF-37" value="duration minutes" style="text;html=1;align=center;verticalAlign=middle;resizable=0;points=[];autosize=1;strokeColor=none;fillColor=none;" parent="1" vertex="1">
          <mxGeometry x="-469.5" y="420" width="110" height="30" as="geometry" />
        </mxCell>
        <mxCell id="l6iWQp9dj2jAlaysU-fF-38" value="rating" style="text;html=1;align=center;verticalAlign=middle;resizable=0;points=[];autosize=1;strokeColor=none;fillColor=none;" parent="1" vertex="1">
          <mxGeometry x="-463.5" y="445" width="50" height="30" as="geometry" />
        </mxCell>
        <mxCell id="l6iWQp9dj2jAlaysU-fF-41" value="" style="ellipse;whiteSpace=wrap;html=1;aspect=fixed;" parent="1" vertex="1">
          <mxGeometry x="-499" y="66" width="20" height="20" as="geometry" />
        </mxCell>
        <mxCell id="l6iWQp9dj2jAlaysU-fF-42" value="" style="ellipse;whiteSpace=wrap;html=1;aspect=fixed;" parent="1" vertex="1">
          <mxGeometry x="-499" y="36" width="20" height="20" as="geometry" />
        </mxCell>
        <mxCell id="l6iWQp9dj2jAlaysU-fF-43" value="showdate time" style="text;html=1;align=center;verticalAlign=middle;resizable=0;points=[];autosize=1;strokeColor=none;fillColor=none;" parent="1" vertex="1">
          <mxGeometry x="-479" y="31" width="100" height="30" as="geometry" />
        </mxCell>
        <mxCell id="l6iWQp9dj2jAlaysU-fF-44" value="price" style="text;html=1;align=center;verticalAlign=middle;resizable=0;points=[];autosize=1;strokeColor=none;fillColor=none;" parent="1" vertex="1">
          <mxGeometry x="-479" y="61" width="50" height="30" as="geometry" />
        </mxCell>
        <mxCell id="l6iWQp9dj2jAlaysU-fF-48" value="" style="ellipse;whiteSpace=wrap;html=1;aspect=fixed;" parent="1" vertex="1">
          <mxGeometry x="68" y="66" width="20" height="20" as="geometry" />
        </mxCell>
        <mxCell id="l6iWQp9dj2jAlaysU-fF-49" value="" style="ellipse;whiteSpace=wrap;html=1;aspect=fixed;" parent="1" vertex="1">
          <mxGeometry x="68" y="31" width="20" height="20" as="geometry" />
        </mxCell>
        <mxCell id="l6iWQp9dj2jAlaysU-fF-52" value="seat number" style="text;html=1;align=center;verticalAlign=middle;resizable=0;points=[];autosize=1;strokeColor=none;fillColor=none;" parent="1" vertex="1">
          <mxGeometry x="86" y="26" width="90" height="30" as="geometry" />
        </mxCell>
        <mxCell id="l6iWQp9dj2jAlaysU-fF-53" value="purchase date time" style="text;html=1;align=center;verticalAlign=middle;resizable=0;points=[];autosize=1;strokeColor=none;fillColor=none;" parent="1" vertex="1">
          <mxGeometry x="83" y="61" width="130" height="30" as="geometry" />
        </mxCell>
        <mxCell id="vr4257gKs70EG6Qa4sg_-15" style="edgeStyle=orthogonalEdgeStyle;rounded=0;orthogonalLoop=1;jettySize=auto;html=1;entryX=1;entryY=0.5;entryDx=0;entryDy=0;" parent="1" source="l6iWQp9dj2jAlaysU-fF-54" target="vr4257gKs70EG6Qa4sg_-13" edge="1">
          <mxGeometry relative="1" as="geometry" />
        </mxCell>
        <mxCell id="vr4257gKs70EG6Qa4sg_-17" style="edgeStyle=orthogonalEdgeStyle;rounded=0;orthogonalLoop=1;jettySize=auto;html=1;entryX=1;entryY=0.5;entryDx=0;entryDy=0;endArrow=classic;endFill=1;" parent="1" source="l6iWQp9dj2jAlaysU-fF-54" target="vr4257gKs70EG6Qa4sg_-16" edge="1">
          <mxGeometry relative="1" as="geometry" />
        </mxCell>
        <mxCell id="vr4257gKs70EG6Qa4sg_-19" style="edgeStyle=orthogonalEdgeStyle;rounded=0;orthogonalLoop=1;jettySize=auto;html=1;entryX=0;entryY=0.5;entryDx=0;entryDy=0;endArrow=doubleBlock;endFill=1;" parent="1" source="l6iWQp9dj2jAlaysU-fF-54" target="l6iWQp9dj2jAlaysU-fF-63" edge="1">
          <mxGeometry relative="1" as="geometry" />
        </mxCell>
        <mxCell id="vr4257gKs70EG6Qa4sg_-20" style="edgeStyle=orthogonalEdgeStyle;rounded=0;orthogonalLoop=1;jettySize=auto;html=1;entryX=0;entryY=0.5;entryDx=0;entryDy=0;endArrow=doubleBlock;endFill=1;" parent="1" source="l6iWQp9dj2jAlaysU-fF-54" target="l6iWQp9dj2jAlaysU-fF-55" edge="1">
          <mxGeometry relative="1" as="geometry" />
        </mxCell>
        <mxCell id="vr4257gKs70EG6Qa4sg_-21" style="edgeStyle=orthogonalEdgeStyle;rounded=0;orthogonalLoop=1;jettySize=auto;html=1;entryX=0;entryY=0.5;entryDx=0;entryDy=0;" parent="1" source="l6iWQp9dj2jAlaysU-fF-54" target="l6iWQp9dj2jAlaysU-fF-56" edge="1">
          <mxGeometry relative="1" as="geometry" />
        </mxCell>
        <mxCell id="vr4257gKs70EG6Qa4sg_-22" style="edgeStyle=orthogonalEdgeStyle;rounded=0;orthogonalLoop=1;jettySize=auto;html=1;entryX=0;entryY=0.5;entryDx=0;entryDy=0;" parent="1" source="l6iWQp9dj2jAlaysU-fF-54" target="l6iWQp9dj2jAlaysU-fF-57" edge="1">
          <mxGeometry relative="1" as="geometry" />
        </mxCell>
        <mxCell id="l6iWQp9dj2jAlaysU-fF-54" value="Customer" style="rounded=0;whiteSpace=wrap;html=1;" parent="1" vertex="1">
          <mxGeometry x="508" y="6" width="150" height="80" as="geometry" />
        </mxCell>
        <mxCell id="l6iWQp9dj2jAlaysU-fF-55" value="" style="ellipse;whiteSpace=wrap;html=1;aspect=fixed;" parent="1" vertex="1">
          <mxGeometry x="630" y="199" width="20" height="20" as="geometry" />
        </mxCell>
        <mxCell id="l6iWQp9dj2jAlaysU-fF-56" value="" style="ellipse;whiteSpace=wrap;html=1;aspect=fixed;" parent="1" vertex="1">
          <mxGeometry x="630" y="169" width="20" height="20" as="geometry" />
        </mxCell>
        <mxCell id="l6iWQp9dj2jAlaysU-fF-57" value="" style="ellipse;whiteSpace=wrap;html=1;aspect=fixed;" parent="1" vertex="1">
          <mxGeometry x="630" y="144" width="20" height="20" as="geometry" />
        </mxCell>
        <mxCell id="l6iWQp9dj2jAlaysU-fF-63" value="" style="ellipse;whiteSpace=wrap;html=1;aspect=fixed;" parent="1" vertex="1">
          <mxGeometry x="630" y="224" width="20" height="20" as="geometry" />
        </mxCell>
        <mxCell id="l6iWQp9dj2jAlaysU-fF-65" value="first name" style="text;html=1;align=center;verticalAlign=middle;resizable=0;points=[];autosize=1;strokeColor=none;fillColor=none;" parent="1" vertex="1">
          <mxGeometry x="644" y="140" width="80" height="30" as="geometry" />
        </mxCell>
        <mxCell id="l6iWQp9dj2jAlaysU-fF-66" value="last name" style="text;html=1;align=center;verticalAlign=middle;resizable=0;points=[];autosize=1;strokeColor=none;fillColor=none;" parent="1" vertex="1">
          <mxGeometry x="644" y="164" width="80" height="30" as="geometry" />
        </mxCell>
        <mxCell id="l6iWQp9dj2jAlaysU-fF-67" value="email" style="text;html=1;align=center;verticalAlign=middle;resizable=0;points=[];autosize=1;strokeColor=none;fillColor=none;" parent="1" vertex="1">
          <mxGeometry x="648" y="194" width="50" height="30" as="geometry" />
        </mxCell>
        <mxCell id="l6iWQp9dj2jAlaysU-fF-68" value="phone number" style="text;html=1;align=center;verticalAlign=middle;resizable=0;points=[];autosize=1;strokeColor=none;fillColor=none;" parent="1" vertex="1">
          <mxGeometry x="647" y="219" width="100" height="30" as="geometry" />
        </mxCell>
        <mxCell id="l6iWQp9dj2jAlaysU-fF-70" value="" style="ellipse;whiteSpace=wrap;html=1;aspect=fixed;" parent="1" vertex="1">
          <mxGeometry x="76" y="315" width="20" height="20" as="geometry" />
        </mxCell>
        <mxCell id="l6iWQp9dj2jAlaysU-fF-71" value="review text" style="text;html=1;align=center;verticalAlign=middle;resizable=0;points=[];autosize=1;strokeColor=none;fillColor=none;" parent="1" vertex="1">
          <mxGeometry x="95" y="310" width="80" height="30" as="geometry" />
        </mxCell>
        <mxCell id="l6iWQp9dj2jAlaysU-fF-72" value="" style="ellipse;whiteSpace=wrap;html=1;aspect=fixed;" parent="1" vertex="1">
          <mxGeometry x="76" y="345" width="20" height="20" as="geometry" />
        </mxCell>
        <mxCell id="l6iWQp9dj2jAlaysU-fF-73" value="" style="ellipse;whiteSpace=wrap;html=1;aspect=fixed;" parent="1" vertex="1">
          <mxGeometry x="76" y="375" width="20" height="20" as="geometry" />
        </mxCell>
        <mxCell id="l6iWQp9dj2jAlaysU-fF-74" value="rating" style="text;html=1;align=center;verticalAlign=middle;resizable=0;points=[];autosize=1;strokeColor=none;fillColor=none;" parent="1" vertex="1">
          <mxGeometry x="95" y="340" width="50" height="30" as="geometry" />
        </mxCell>
        <mxCell id="l6iWQp9dj2jAlaysU-fF-75" value="review date" style="text;html=1;align=center;verticalAlign=middle;resizable=0;points=[];autosize=1;strokeColor=none;fillColor=none;" parent="1" vertex="1">
          <mxGeometry x="96" y="370" width="80" height="30" as="geometry" />
        </mxCell>
        <mxCell id="l6iWQp9dj2jAlaysU-fF-85" style="edgeStyle=orthogonalEdgeStyle;rounded=0;orthogonalLoop=1;jettySize=auto;html=1;entryX=0;entryY=0.5;entryDx=0;entryDy=0;" parent="1" source="l6iWQp9dj2jAlaysU-fF-79" target="l6iWQp9dj2jAlaysU-fF-84" edge="1">
          <mxGeometry relative="1" as="geometry" />
        </mxCell>
        <mxCell id="l6iWQp9dj2jAlaysU-fF-86" style="edgeStyle=orthogonalEdgeStyle;rounded=0;orthogonalLoop=1;jettySize=auto;html=1;entryX=0;entryY=0.5;entryDx=0;entryDy=0;endArrow=doubleBlock;endFill=1;" parent="1" source="l6iWQp9dj2jAlaysU-fF-79" target="l6iWQp9dj2jAlaysU-fF-81" edge="1">
          <mxGeometry relative="1" as="geometry" />
        </mxCell>
        <mxCell id="l6iWQp9dj2jAlaysU-fF-87" style="edgeStyle=orthogonalEdgeStyle;rounded=0;orthogonalLoop=1;jettySize=auto;html=1;entryX=0;entryY=0.5;entryDx=0;entryDy=0;" parent="1" source="l6iWQp9dj2jAlaysU-fF-79" target="l6iWQp9dj2jAlaysU-fF-82" edge="1">
          <mxGeometry relative="1" as="geometry" />
        </mxCell>
        <mxCell id="l6iWQp9dj2jAlaysU-fF-88" style="edgeStyle=orthogonalEdgeStyle;rounded=0;orthogonalLoop=1;jettySize=auto;html=1;entryX=0;entryY=0.5;entryDx=0;entryDy=0;" parent="1" source="l6iWQp9dj2jAlaysU-fF-79" target="l6iWQp9dj2jAlaysU-fF-83" edge="1">
          <mxGeometry relative="1" as="geometry" />
        </mxCell>
        <mxCell id="l6iWQp9dj2jAlaysU-fF-113" style="edgeStyle=orthogonalEdgeStyle;rounded=0;orthogonalLoop=1;jettySize=auto;html=1;entryX=1;entryY=0.5;entryDx=0;entryDy=0;" parent="1" source="l6iWQp9dj2jAlaysU-fF-79" target="l6iWQp9dj2jAlaysU-fF-111" edge="1">
          <mxGeometry relative="1" as="geometry">
            <mxPoint x="10" y="-576" as="targetPoint" />
          </mxGeometry>
        </mxCell>
        <mxCell id="l6iWQp9dj2jAlaysU-fF-79" value="Employee" style="rounded=0;whiteSpace=wrap;html=1;" parent="1" vertex="1">
          <mxGeometry x="90" y="-616" width="150" height="80" as="geometry" />
        </mxCell>
        <mxCell id="l6iWQp9dj2jAlaysU-fF-81" value="" style="ellipse;whiteSpace=wrap;html=1;aspect=fixed;" parent="1" vertex="1">
          <mxGeometry x="205" y="-458" width="20" height="20" as="geometry" />
        </mxCell>
        <mxCell id="l6iWQp9dj2jAlaysU-fF-82" value="" style="ellipse;whiteSpace=wrap;html=1;aspect=fixed;" parent="1" vertex="1">
          <mxGeometry x="205" y="-484" width="20" height="20" as="geometry" />
        </mxCell>
        <mxCell id="l6iWQp9dj2jAlaysU-fF-83" value="" style="ellipse;whiteSpace=wrap;html=1;aspect=fixed;" parent="1" vertex="1">
          <mxGeometry x="205" y="-509" width="20" height="20" as="geometry" />
        </mxCell>
        <mxCell id="l6iWQp9dj2jAlaysU-fF-84" value="" style="ellipse;whiteSpace=wrap;html=1;aspect=fixed;" parent="1" vertex="1">
          <mxGeometry x="205" y="-428" width="20" height="20" as="geometry" />
        </mxCell>
        <mxCell id="l6iWQp9dj2jAlaysU-fF-89" value="first name" style="text;html=1;align=center;verticalAlign=middle;resizable=0;points=[];autosize=1;strokeColor=none;fillColor=none;" parent="1" vertex="1">
          <mxGeometry x="219" y="-514" width="80" height="30" as="geometry" />
        </mxCell>
        <mxCell id="l6iWQp9dj2jAlaysU-fF-90" value="last name" style="text;html=1;align=center;verticalAlign=middle;resizable=0;points=[];autosize=1;strokeColor=none;fillColor=none;" parent="1" vertex="1">
          <mxGeometry x="220" y="-489" width="80" height="30" as="geometry" />
        </mxCell>
        <mxCell id="l6iWQp9dj2jAlaysU-fF-91" value="position" style="text;html=1;align=center;verticalAlign=middle;resizable=0;points=[];autosize=1;strokeColor=none;fillColor=none;" parent="1" vertex="1">
          <mxGeometry x="224" y="-464" width="60" height="30" as="geometry" />
        </mxCell>
        <mxCell id="l6iWQp9dj2jAlaysU-fF-92" value="hire date" style="text;html=1;align=center;verticalAlign=middle;resizable=0;points=[];autosize=1;strokeColor=none;fillColor=none;" parent="1" vertex="1">
          <mxGeometry x="222" y="-434" width="70" height="30" as="geometry" />
        </mxCell>
        <mxCell id="l6iWQp9dj2jAlaysU-fF-97" value="contiene" style="rhombus;whiteSpace=wrap;html=1;" parent="1" vertex="1">
          <mxGeometry x="-585" y="-540" width="80" height="60" as="geometry" />
        </mxCell>
        <mxCell id="l6iWQp9dj2jAlaysU-fF-111" value="lavora" style="rhombus;whiteSpace=wrap;html=1;" parent="1" vertex="1">
          <mxGeometry x="-80" y="-606" width="80" height="60" as="geometry" />
        </mxCell>
        <mxCell id="l6iWQp9dj2jAlaysU-fF-123" style="edgeStyle=orthogonalEdgeStyle;rounded=0;orthogonalLoop=1;jettySize=auto;html=1;entryX=0.5;entryY=1;entryDx=0;entryDy=0;" parent="1" source="l6iWQp9dj2jAlaysU-fF-119" target="l6iWQp9dj2jAlaysU-fF-121" edge="1">
          <mxGeometry relative="1" as="geometry" />
        </mxCell>
        <mxCell id="vr4257gKs70EG6Qa4sg_-29" style="edgeStyle=orthogonalEdgeStyle;rounded=0;orthogonalLoop=1;jettySize=auto;html=1;entryX=0;entryY=0.5;entryDx=0;entryDy=0;" parent="1" source="l6iWQp9dj2jAlaysU-fF-119" target="l6iWQp9dj2jAlaysU-fF-41" edge="1">
          <mxGeometry relative="1" as="geometry" />
        </mxCell>
        <mxCell id="vr4257gKs70EG6Qa4sg_-30" style="edgeStyle=orthogonalEdgeStyle;rounded=0;orthogonalLoop=1;jettySize=auto;html=1;entryX=0;entryY=0.5;entryDx=0;entryDy=0;" parent="1" source="l6iWQp9dj2jAlaysU-fF-119" target="l6iWQp9dj2jAlaysU-fF-42" edge="1">
          <mxGeometry relative="1" as="geometry" />
        </mxCell>
        <mxCell id="vr4257gKs70EG6Qa4sg_-31" style="edgeStyle=orthogonalEdgeStyle;rounded=0;orthogonalLoop=1;jettySize=auto;html=1;entryX=0.5;entryY=0;entryDx=0;entryDy=0;" parent="1" source="l6iWQp9dj2jAlaysU-fF-119" target="vr4257gKs70EG6Qa4sg_-28" edge="1">
          <mxGeometry relative="1" as="geometry" />
        </mxCell>
        <mxCell id="l6iWQp9dj2jAlaysU-fF-119" value="Showtime" style="rounded=0;whiteSpace=wrap;html=1;" parent="1" vertex="1">
          <mxGeometry x="-619.5" y="-70" width="150" height="80" as="geometry" />
        </mxCell>
        <mxCell id="l6iWQp9dj2jAlaysU-fF-121" value="contiene" style="rhombus;whiteSpace=wrap;html=1;" parent="1" vertex="1">
          <mxGeometry x="-585" y="-184" width="80" height="50" as="geometry" />
        </mxCell>
        <mxCell id="vr4257gKs70EG6Qa4sg_-3" style="edgeStyle=orthogonalEdgeStyle;rounded=0;orthogonalLoop=1;jettySize=auto;html=1;entryX=0;entryY=0.5;entryDx=0;entryDy=0;" parent="1" source="vr4257gKs70EG6Qa4sg_-2" target="l6iWQp9dj2jAlaysU-fF-49" edge="1">
          <mxGeometry relative="1" as="geometry" />
        </mxCell>
        <mxCell id="vr4257gKs70EG6Qa4sg_-4" style="edgeStyle=orthogonalEdgeStyle;rounded=0;orthogonalLoop=1;jettySize=auto;html=1;entryX=0;entryY=0.5;entryDx=0;entryDy=0;" parent="1" source="vr4257gKs70EG6Qa4sg_-2" target="l6iWQp9dj2jAlaysU-fF-48" edge="1">
          <mxGeometry relative="1" as="geometry" />
        </mxCell>
        <mxCell id="vr4257gKs70EG6Qa4sg_-7" style="edgeStyle=orthogonalEdgeStyle;rounded=0;orthogonalLoop=1;jettySize=auto;html=1;entryX=1;entryY=0.5;entryDx=0;entryDy=0;" parent="1" source="vr4257gKs70EG6Qa4sg_-2" target="vr4257gKs70EG6Qa4sg_-5" edge="1">
          <mxGeometry relative="1" as="geometry" />
        </mxCell>
        <mxCell id="vr4257gKs70EG6Qa4sg_-14" style="edgeStyle=orthogonalEdgeStyle;rounded=0;orthogonalLoop=1;jettySize=auto;html=1;" parent="1" source="vr4257gKs70EG6Qa4sg_-2" target="vr4257gKs70EG6Qa4sg_-13" edge="1">
          <mxGeometry relative="1" as="geometry" />
        </mxCell>
        <mxCell id="vr4257gKs70EG6Qa4sg_-2" value="Ticket" style="rounded=0;whiteSpace=wrap;html=1;" parent="1" vertex="1">
          <mxGeometry x="-30" y="-70" width="150" height="80" as="geometry" />
        </mxCell>
        <mxCell id="vr4257gKs70EG6Qa4sg_-5" value="accede" style="rhombus;whiteSpace=wrap;html=1;" parent="1" vertex="1">
          <mxGeometry x="-270" y="-55" width="80" height="50" as="geometry" />
        </mxCell>
        <mxCell id="vr4257gKs70EG6Qa4sg_-6" style="edgeStyle=orthogonalEdgeStyle;rounded=0;orthogonalLoop=1;jettySize=auto;html=1;entryX=0;entryY=0.5;entryDx=0;entryDy=0;" parent="1" source="l6iWQp9dj2jAlaysU-fF-119" target="vr4257gKs70EG6Qa4sg_-5" edge="1">
          <mxGeometry relative="1" as="geometry" />
        </mxCell>
        <mxCell id="vr4257gKs70EG6Qa4sg_-10" style="edgeStyle=orthogonalEdgeStyle;rounded=0;orthogonalLoop=1;jettySize=auto;html=1;entryX=0;entryY=0.5;entryDx=0;entryDy=0;" parent="1" source="vr4257gKs70EG6Qa4sg_-9" target="l6iWQp9dj2jAlaysU-fF-70" edge="1">
          <mxGeometry relative="1" as="geometry" />
        </mxCell>
        <mxCell id="vr4257gKs70EG6Qa4sg_-11" style="edgeStyle=orthogonalEdgeStyle;rounded=0;orthogonalLoop=1;jettySize=auto;html=1;entryX=0;entryY=0.5;entryDx=0;entryDy=0;" parent="1" source="vr4257gKs70EG6Qa4sg_-9" target="l6iWQp9dj2jAlaysU-fF-72" edge="1">
          <mxGeometry relative="1" as="geometry" />
        </mxCell>
        <mxCell id="vr4257gKs70EG6Qa4sg_-12" style="edgeStyle=orthogonalEdgeStyle;rounded=0;orthogonalLoop=1;jettySize=auto;html=1;entryX=0;entryY=0.5;entryDx=0;entryDy=0;" parent="1" source="vr4257gKs70EG6Qa4sg_-9" target="l6iWQp9dj2jAlaysU-fF-73" edge="1">
          <mxGeometry relative="1" as="geometry" />
        </mxCell>
        <mxCell id="vr4257gKs70EG6Qa4sg_-18" style="edgeStyle=orthogonalEdgeStyle;rounded=0;orthogonalLoop=1;jettySize=auto;html=1;" parent="1" source="vr4257gKs70EG6Qa4sg_-9" edge="1">
          <mxGeometry relative="1" as="geometry">
            <mxPoint x="290" y="200.00000000000023" as="targetPoint" />
          </mxGeometry>
        </mxCell>
        <mxCell id="vr4257gKs70EG6Qa4sg_-24" style="edgeStyle=orthogonalEdgeStyle;rounded=0;orthogonalLoop=1;jettySize=auto;html=1;entryX=1;entryY=0.5;entryDx=0;entryDy=0;" parent="1" source="vr4257gKs70EG6Qa4sg_-9" target="vr4257gKs70EG6Qa4sg_-23" edge="1">
          <mxGeometry relative="1" as="geometry" />
        </mxCell>
        <mxCell id="vr4257gKs70EG6Qa4sg_-9" value="Review" style="rounded=0;whiteSpace=wrap;html=1;" parent="1" vertex="1">
          <mxGeometry x="-30" y="201" width="150" height="80" as="geometry" />
        </mxCell>
        <mxCell id="vr4257gKs70EG6Qa4sg_-13" value="compra" style="rhombus;whiteSpace=wrap;html=1;" parent="1" vertex="1">
          <mxGeometry x="292" y="-55" width="80" height="50" as="geometry" />
        </mxCell>
        <mxCell id="vr4257gKs70EG6Qa4sg_-16" value="effettua" style="rhombus;whiteSpace=wrap;html=1;" parent="1" vertex="1">
          <mxGeometry x="290" y="177" width="80" height="50" as="geometry" />
        </mxCell>
        <mxCell id="vr4257gKs70EG6Qa4sg_-23" value="ha" style="rhombus;whiteSpace=wrap;html=1;" parent="1" vertex="1">
          <mxGeometry x="-270" y="216" width="80" height="50" as="geometry" />
        </mxCell>
        <mxCell id="vr4257gKs70EG6Qa4sg_-28" value="propone" style="rhombus;whiteSpace=wrap;html=1;" parent="1" vertex="1">
          <mxGeometry x="-585" y="94" width="80" height="50" as="geometry" />
        </mxCell>
        <mxCell id="yAv5zkHYcVE5Bd6ufhOe-1" value="" style="endArrow=none;html=1;rounded=0;" parent="1" edge="1">
          <mxGeometry width="50" height="50" relative="1" as="geometry">
            <mxPoint x="-270" y="-360" as="sourcePoint" />
            <mxPoint x="-270" y="-380" as="targetPoint" />
          </mxGeometry>
        </mxCell>
        <mxCell id="yAv5zkHYcVE5Bd6ufhOe-2" value="" style="endArrow=none;html=1;rounded=0;" parent="1" edge="1">
          <mxGeometry width="50" height="50" relative="1" as="geometry">
            <mxPoint x="-530" y="-220" as="sourcePoint" />
            <mxPoint x="-530" y="-250" as="targetPoint" />
          </mxGeometry>
        </mxCell>
        <mxCell id="yAv5zkHYcVE5Bd6ufhOe-3" value="" style="endArrow=none;html=1;rounded=0;" parent="1" edge="1">
          <mxGeometry width="50" height="50" relative="1" as="geometry">
            <mxPoint x="-520" y="480" as="sourcePoint" />
            <mxPoint x="-520" y="360" as="targetPoint" />
          </mxGeometry>
        </mxCell>
        <mxCell id="yAv5zkHYcVE5Bd6ufhOe-4" value="" style="endArrow=none;html=1;rounded=0;" parent="1" edge="1">
          <mxGeometry width="50" height="50" relative="1" as="geometry">
            <mxPoint x="600" y="250" as="sourcePoint" />
            <mxPoint x="600" y="200" as="targetPoint" />
          </mxGeometry>
        </mxCell>
        <mxCell id="yAv5zkHYcVE5Bd6ufhOe-5" value="" style="endArrow=none;html=1;rounded=0;" parent="1" edge="1">
          <mxGeometry width="50" height="50" relative="1" as="geometry">
            <mxPoint x="60" y="370" as="sourcePoint" />
            <mxPoint x="60" y="310" as="targetPoint" />
          </mxGeometry>
        </mxCell>
        <mxCell id="yAv5zkHYcVE5Bd6ufhOe-6" value="" style="endArrow=none;html=1;rounded=0;" parent="1" edge="1">
          <mxGeometry width="50" height="50" relative="1" as="geometry">
            <mxPoint x="180" y="-400" as="sourcePoint" />
            <mxPoint x="180" y="-460" as="targetPoint" />
          </mxGeometry>
        </mxCell>
        <mxCell id="yAv5zkHYcVE5Bd6ufhOe-7" value="" style="endArrow=none;html=1;rounded=0;" parent="1" edge="1">
          <mxGeometry width="50" height="50" relative="1" as="geometry">
            <mxPoint x="-160" y="-530" as="sourcePoint" />
            <mxPoint x="-160" y="-620" as="targetPoint" />
          </mxGeometry>
        </mxCell>
        <mxCell id="yAv5zkHYcVE5Bd6ufhOe-8" value="" style="endArrow=none;html=1;rounded=0;" parent="1" edge="1">
          <mxGeometry width="50" height="50" relative="1" as="geometry">
            <mxPoint x="-420" y="-530" as="sourcePoint" />
            <mxPoint x="-420" y="-620" as="targetPoint" />
          </mxGeometry>
        </mxCell>
        <mxCell id="yAv5zkHYcVE5Bd6ufhOe-9" value="" style="endArrow=none;html=1;rounded=0;" parent="1" edge="1">
          <mxGeometry width="50" height="50" relative="1" as="geometry">
            <mxPoint x="-590" y="-420" as="sourcePoint" />
            <mxPoint x="-500" y="-420" as="targetPoint" />
          </mxGeometry>
        </mxCell>
        <mxCell id="yAv5zkHYcVE5Bd6ufhOe-10" value="" style="endArrow=none;html=1;rounded=0;" parent="1" edge="1">
          <mxGeometry width="50" height="50" relative="1" as="geometry">
            <mxPoint x="-570" y="-209" as="sourcePoint" />
            <mxPoint x="-520" y="-209" as="targetPoint" />
          </mxGeometry>
        </mxCell>
        <mxCell id="yAv5zkHYcVE5Bd6ufhOe-11" value="" style="endArrow=none;html=1;rounded=0;" parent="1" edge="1">
          <mxGeometry width="50" height="50" relative="1" as="geometry">
            <mxPoint x="-570" y="180" as="sourcePoint" />
            <mxPoint x="-520" y="180" as="targetPoint" />
          </mxGeometry>
        </mxCell>
        <mxCell id="yAv5zkHYcVE5Bd6ufhOe-12" value="" style="endArrow=none;html=1;rounded=0;" parent="1" edge="1">
          <mxGeometry width="50" height="50" relative="1" as="geometry">
            <mxPoint x="-440" y="270" as="sourcePoint" />
            <mxPoint x="-440" y="210" as="targetPoint" />
          </mxGeometry>
        </mxCell>
        <mxCell id="yAv5zkHYcVE5Bd6ufhOe-13" value="" style="endArrow=none;html=1;rounded=0;" parent="1" edge="1">
          <mxGeometry width="50" height="50" relative="1" as="geometry">
            <mxPoint x="140" y="265" as="sourcePoint" />
            <mxPoint x="140" y="215" as="targetPoint" />
          </mxGeometry>
        </mxCell>
        <mxCell id="yAv5zkHYcVE5Bd6ufhOe-14" value="" style="endArrow=none;html=1;rounded=0;" parent="1" edge="1">
          <mxGeometry width="50" height="50" relative="1" as="geometry">
            <mxPoint x="410" y="100" as="sourcePoint" />
            <mxPoint x="470" y="100" as="targetPoint" />
          </mxGeometry>
        </mxCell>
        <mxCell id="yAv5zkHYcVE5Bd6ufhOe-16" value="" style="endArrow=none;html=1;rounded=0;" parent="1" edge="1">
          <mxGeometry width="50" height="50" relative="1" as="geometry">
            <mxPoint x="410" y="20" as="sourcePoint" />
            <mxPoint x="470" y="20" as="targetPoint" />
          </mxGeometry>
        </mxCell>
        <mxCell id="yAv5zkHYcVE5Bd6ufhOe-17" value="" style="endArrow=none;html=1;rounded=0;" parent="1" edge="1">
          <mxGeometry width="50" height="50" relative="1" as="geometry">
            <mxPoint x="160" as="sourcePoint" />
            <mxPoint x="160" y="-60" as="targetPoint" />
          </mxGeometry>
        </mxCell>
      </root>
    </mxGraphModel>
  </diagram>
</mxfile>
